<mxfile modified="2022-12-13T03:12:48.478Z" host="app.diagrams.net" agent="5.0 (Windows NT 10.0; Win64; x64) AppleWebKit/537.36 (KHTML, like Gecko) Chrome/108.0.0.0 Safari/537.36 Edg/108.0.1462.46" etag="OV3_8tM19IILRoOuKIik" version="20.6.2" type="github">
  <diagram id="Ht1M8jgEwFfnCIfOTk4-" name="Page-1">
    <mxGraphModel dx="1316" dy="834" grid="1" gridSize="10" guides="1" tooltips="1" connect="1" arrows="1" fold="1" page="1" pageScale="1" pageWidth="1169" pageHeight="827" math="0" shadow="0">
      <root>
        <mxCell id="0" />
        <mxCell id="1" parent="0" />
        <mxCell id="76C8o1AgfkSou40HYmaA-1" value="VPC" style="sketch=0;points=[[0,0,0],[0.25,0,0],[0.5,0,0],[0.75,0,0],[1,0,0],[0,1,0],[0.25,1,0],[0.5,1,0],[0.75,1,0],[1,1,0],[0,0.25,0],[0,0.5,0],[0,0.75,0],[1,0.25,0],[1,0.5,0],[1,0.75,0]];outlineConnect=0;fontColor=#232F3E;gradientColor=#945DF2;gradientDirection=north;fillColor=#5A30B5;strokeColor=#ffffff;dashed=0;verticalLabelPosition=bottom;verticalAlign=top;align=center;html=1;fontSize=12;fontStyle=0;aspect=fixed;shape=mxgraph.aws4.resourceIcon;resIcon=mxgraph.aws4.vpc;" vertex="1" parent="1">
          <mxGeometry x="300" y="140" width="58" height="58" as="geometry" />
        </mxCell>
        <mxCell id="76C8o1AgfkSou40HYmaA-6" value="" style="whiteSpace=wrap;html=1;aspect=fixed;dashed=1;fillColor=none;strokeColor=default;shadow=0;" vertex="1" parent="1">
          <mxGeometry x="280" y="120" width="260" height="260" as="geometry" />
        </mxCell>
        <mxCell id="76C8o1AgfkSou40HYmaA-7" value="ECS" style="sketch=0;points=[[0,0,0],[0.25,0,0],[0.5,0,0],[0.75,0,0],[1,0,0],[0,1,0],[0.25,1,0],[0.5,1,0],[0.75,1,0],[1,1,0],[0,0.25,0],[0,0.5,0],[0,0.75,0],[1,0.25,0],[1,0.5,0],[1,0.75,0]];outlineConnect=0;fontColor=#232F3E;gradientColor=#F78E04;gradientDirection=north;fillColor=#D05C17;strokeColor=#ffffff;dashed=0;verticalLabelPosition=bottom;verticalAlign=top;align=center;html=1;fontSize=12;fontStyle=0;aspect=fixed;shape=mxgraph.aws4.resourceIcon;resIcon=mxgraph.aws4.ec2;" vertex="1" parent="1">
          <mxGeometry x="380" y="250" width="60" height="60" as="geometry" />
        </mxCell>
        <mxCell id="76C8o1AgfkSou40HYmaA-8" value="VPC" style="sketch=0;points=[[0,0,0],[0.25,0,0],[0.5,0,0],[0.75,0,0],[1,0,0],[0,1,0],[0.25,1,0],[0.5,1,0],[0.75,1,0],[1,1,0],[0,0.25,0],[0,0.5,0],[0,0.75,0],[1,0.25,0],[1,0.5,0],[1,0.75,0]];outlineConnect=0;fontColor=#232F3E;gradientColor=#945DF2;gradientDirection=north;fillColor=#5A30B5;strokeColor=#ffffff;dashed=0;verticalLabelPosition=bottom;verticalAlign=top;align=center;html=1;fontSize=12;fontStyle=0;aspect=fixed;shape=mxgraph.aws4.resourceIcon;resIcon=mxgraph.aws4.vpc;" vertex="1" parent="1">
          <mxGeometry x="730" y="129" width="64" height="64" as="geometry" />
        </mxCell>
        <mxCell id="76C8o1AgfkSou40HYmaA-36" value="" style="edgeStyle=orthogonalEdgeStyle;rounded=0;orthogonalLoop=1;jettySize=auto;html=1;" edge="1" parent="1" source="76C8o1AgfkSou40HYmaA-9" target="76C8o1AgfkSou40HYmaA-15">
          <mxGeometry relative="1" as="geometry">
            <Array as="points">
              <mxPoint x="840" y="390" />
              <mxPoint x="840" y="390" />
            </Array>
          </mxGeometry>
        </mxCell>
        <mxCell id="76C8o1AgfkSou40HYmaA-9" value="" style="whiteSpace=wrap;html=1;aspect=fixed;dashed=1;fillColor=none;" vertex="1" parent="1">
          <mxGeometry x="700" y="119" width="261" height="261" as="geometry" />
        </mxCell>
        <mxCell id="76C8o1AgfkSou40HYmaA-11" value="Shanghai" style="text;html=1;strokeColor=none;fillColor=none;align=center;verticalAlign=middle;whiteSpace=wrap;rounded=0;dashed=1;" vertex="1" parent="1">
          <mxGeometry x="430" y="138" width="60" height="30" as="geometry" />
        </mxCell>
        <mxCell id="76C8o1AgfkSou40HYmaA-12" value="London" style="text;html=1;strokeColor=none;fillColor=none;align=center;verticalAlign=middle;whiteSpace=wrap;rounded=0;dashed=1;" vertex="1" parent="1">
          <mxGeometry x="860" y="139" width="60" height="30" as="geometry" />
        </mxCell>
        <mxCell id="76C8o1AgfkSou40HYmaA-17" value="" style="edgeStyle=orthogonalEdgeStyle;rounded=0;orthogonalLoop=1;jettySize=auto;html=1;" edge="1" parent="1" source="76C8o1AgfkSou40HYmaA-13" target="76C8o1AgfkSou40HYmaA-6">
          <mxGeometry relative="1" as="geometry">
            <Array as="points">
              <mxPoint x="240" y="240" />
              <mxPoint x="240" y="240" />
            </Array>
          </mxGeometry>
        </mxCell>
        <mxCell id="76C8o1AgfkSou40HYmaA-13" value="ELB" style="sketch=0;points=[[0,0,0],[0.25,0,0],[0.5,0,0],[0.75,0,0],[1,0,0],[0,1,0],[0.25,1,0],[0.5,1,0],[0.75,1,0],[1,1,0],[0,0.25,0],[0,0.5,0],[0,0.75,0],[1,0.25,0],[1,0.5,0],[1,0.75,0]];outlineConnect=0;fontColor=#232F3E;gradientColor=#945DF2;gradientDirection=north;fillColor=#5A30B5;strokeColor=#ffffff;dashed=0;verticalLabelPosition=bottom;verticalAlign=top;align=center;html=1;fontSize=12;fontStyle=0;aspect=fixed;shape=mxgraph.aws4.resourceIcon;resIcon=mxgraph.aws4.elastic_load_balancing;" vertex="1" parent="1">
          <mxGeometry x="180" y="214" width="56" height="56" as="geometry" />
        </mxCell>
        <mxCell id="76C8o1AgfkSou40HYmaA-14" value="CEN" style="sketch=0;points=[[0,0,0],[0.25,0,0],[0.5,0,0],[0.75,0,0],[1,0,0],[0,1,0],[0.25,1,0],[0.5,1,0],[0.75,1,0],[1,1,0],[0,0.25,0],[0,0.5,0],[0,0.75,0],[1,0.25,0],[1,0.5,0],[1,0.75,0]];outlineConnect=0;fontColor=#232F3E;gradientColor=#945DF2;gradientDirection=north;fillColor=#5A30B5;strokeColor=#ffffff;dashed=0;verticalLabelPosition=bottom;verticalAlign=top;align=center;html=1;fontSize=12;fontStyle=0;aspect=fixed;shape=mxgraph.aws4.resourceIcon;resIcon=mxgraph.aws4.transit_gateway;" vertex="1" parent="1">
          <mxGeometry x="585" y="207.5" width="61" height="61" as="geometry" />
        </mxCell>
        <mxCell id="76C8o1AgfkSou40HYmaA-15" value="Site-to-Site VPN" style="sketch=0;points=[[0,0,0],[0.25,0,0],[0.5,0,0],[0.75,0,0],[1,0,0],[0,1,0],[0.25,1,0],[0.5,1,0],[0.75,1,0],[1,1,0],[0,0.25,0],[0,0.5,0],[0,0.75,0],[1,0.25,0],[1,0.5,0],[1,0.75,0]];outlineConnect=0;fontColor=#232F3E;gradientColor=#945DF2;gradientDirection=north;fillColor=#5A30B5;strokeColor=#ffffff;dashed=0;verticalLabelPosition=bottom;verticalAlign=top;align=center;html=1;fontSize=12;fontStyle=0;aspect=fixed;shape=mxgraph.aws4.resourceIcon;resIcon=mxgraph.aws4.site_to_site_vpn;" vertex="1" parent="1">
          <mxGeometry x="810" y="420" width="60" height="60" as="geometry" />
        </mxCell>
        <mxCell id="76C8o1AgfkSou40HYmaA-25" value="WorldFirst-China-Firewall-17-12-2020" style="text;html=1;strokeColor=none;fillColor=none;align=center;verticalAlign=middle;whiteSpace=wrap;rounded=0;dashed=1;" vertex="1" parent="1">
          <mxGeometry x="345" y="330" width="130" height="30" as="geometry" />
        </mxCell>
        <mxCell id="76C8o1AgfkSou40HYmaA-32" value="" style="endArrow=classic;html=1;rounded=0;exitX=1;exitY=0.5;exitDx=0;exitDy=0;exitPerimeter=0;entryX=-0.004;entryY=0.456;entryDx=0;entryDy=0;entryPerimeter=0;" edge="1" parent="1" source="76C8o1AgfkSou40HYmaA-14" target="76C8o1AgfkSou40HYmaA-9">
          <mxGeometry width="50" height="50" relative="1" as="geometry">
            <mxPoint x="650" y="270" as="sourcePoint" />
            <mxPoint x="700" y="220" as="targetPoint" />
          </mxGeometry>
        </mxCell>
        <mxCell id="76C8o1AgfkSou40HYmaA-33" value="" style="endArrow=classic;html=1;rounded=0;exitX=1.015;exitY=0.473;exitDx=0;exitDy=0;exitPerimeter=0;" edge="1" parent="1">
          <mxGeometry width="50" height="50" relative="1" as="geometry">
            <mxPoint x="538.9000000000001" y="242.98000000000002" as="sourcePoint" />
            <mxPoint x="585" y="243" as="targetPoint" />
          </mxGeometry>
        </mxCell>
        <mxCell id="76C8o1AgfkSou40HYmaA-37" value="AWS VPC" style="sketch=0;points=[[0,0,0],[0.25,0,0],[0.5,0,0],[0.75,0,0],[1,0,0],[0,1,0],[0.25,1,0],[0.5,1,0],[0.75,1,0],[1,1,0],[0,0.25,0],[0,0.5,0],[0,0.75,0],[1,0.25,0],[1,0.5,0],[1,0.75,0]];outlineConnect=0;fontColor=#232F3E;gradientColor=#945DF2;gradientDirection=north;fillColor=#5A30B5;strokeColor=#ffffff;dashed=0;verticalLabelPosition=bottom;verticalAlign=top;align=center;html=1;fontSize=12;fontStyle=0;aspect=fixed;shape=mxgraph.aws4.resourceIcon;resIcon=mxgraph.aws4.vpc;shadow=0;" vertex="1" parent="1">
          <mxGeometry x="801" y="554" width="78" height="78" as="geometry" />
        </mxCell>
        <mxCell id="76C8o1AgfkSou40HYmaA-42" value="" style="endArrow=classic;html=1;rounded=0;" edge="1" parent="1">
          <mxGeometry width="50" height="50" relative="1" as="geometry">
            <mxPoint x="840" y="500" as="sourcePoint" />
            <mxPoint x="840" y="550" as="targetPoint" />
          </mxGeometry>
        </mxCell>
        <mxCell id="76C8o1AgfkSou40HYmaA-43" value="Internet" style="ellipse;shape=cloud;whiteSpace=wrap;html=1;shadow=0;dashed=1;strokeColor=default;fillColor=none;" vertex="1" parent="1">
          <mxGeometry x="30" y="204.5" width="90" height="67" as="geometry" />
        </mxCell>
        <mxCell id="76C8o1AgfkSou40HYmaA-45" value="" style="endArrow=classic;html=1;rounded=0;exitX=0.875;exitY=0.5;exitDx=0;exitDy=0;exitPerimeter=0;" edge="1" parent="1" source="76C8o1AgfkSou40HYmaA-43">
          <mxGeometry width="50" height="50" relative="1" as="geometry">
            <mxPoint x="130" y="240" as="sourcePoint" />
            <mxPoint x="180" y="238" as="targetPoint" />
          </mxGeometry>
        </mxCell>
        <mxCell id="76C8o1AgfkSou40HYmaA-47" value="DNS" style="sketch=0;points=[[0,0,0],[0.25,0,0],[0.5,0,0],[0.75,0,0],[1,0,0],[0,1,0],[0.25,1,0],[0.5,1,0],[0.75,1,0],[1,1,0],[0,0.25,0],[0,0.5,0],[0,0.75,0],[1,0.25,0],[1,0.5,0],[1,0.75,0]];outlineConnect=0;fontColor=#232F3E;gradientColor=#945DF2;gradientDirection=north;fillColor=#5A30B5;strokeColor=#ffffff;dashed=0;verticalLabelPosition=bottom;verticalAlign=top;align=center;html=1;fontSize=12;fontStyle=0;aspect=fixed;shape=mxgraph.aws4.resourceIcon;resIcon=mxgraph.aws4.route_53;shadow=0;" vertex="1" parent="1">
          <mxGeometry x="130" y="80" width="58" height="58" as="geometry" />
        </mxCell>
        <mxCell id="76C8o1AgfkSou40HYmaA-49" value="" style="endArrow=classic;startArrow=classic;html=1;rounded=0;" edge="1" parent="1">
          <mxGeometry width="50" height="50" relative="1" as="geometry">
            <mxPoint x="90" y="204.5" as="sourcePoint" />
            <mxPoint x="140" y="154.5" as="targetPoint" />
          </mxGeometry>
        </mxCell>
        <mxCell id="76C8o1AgfkSou40HYmaA-50" value="" style="endArrow=classic;html=1;rounded=0;" edge="1" parent="1">
          <mxGeometry width="50" height="50" relative="1" as="geometry">
            <mxPoint x="180" y="157.5" as="sourcePoint" />
            <mxPoint x="210" y="207.5" as="targetPoint" />
          </mxGeometry>
        </mxCell>
        <mxCell id="76C8o1AgfkSou40HYmaA-51" value="" style="rounded=0;whiteSpace=wrap;html=1;shadow=0;dashed=1;strokeColor=default;fillColor=none;" vertex="1" parent="1">
          <mxGeometry x="120" y="70" width="870" height="440" as="geometry" />
        </mxCell>
        <mxCell id="76C8o1AgfkSou40HYmaA-53" value="AliCloud" style="text;html=1;strokeColor=none;fillColor=none;align=center;verticalAlign=middle;whiteSpace=wrap;rounded=0;shadow=0;dashed=1;" vertex="1" parent="1">
          <mxGeometry x="450" y="460" width="150" height="30" as="geometry" />
        </mxCell>
        <mxCell id="76C8o1AgfkSou40HYmaA-54" value="Route Table" style="sketch=0;outlineConnect=0;fontColor=#232F3E;gradientColor=none;fillColor=#4D27AA;strokeColor=none;dashed=0;verticalLabelPosition=bottom;verticalAlign=top;align=center;html=1;fontSize=12;fontStyle=0;aspect=fixed;pointerEvents=1;shape=mxgraph.aws4.route_table;shadow=0;" vertex="1" parent="1">
          <mxGeometry x="450" y="180" width="61.58" height="60" as="geometry" />
        </mxCell>
        <mxCell id="76C8o1AgfkSou40HYmaA-55" value="worldfirst.com.cn" style="text;html=1;strokeColor=none;fillColor=none;align=center;verticalAlign=middle;whiteSpace=wrap;rounded=0;shadow=0;dashed=1;" vertex="1" parent="1">
          <mxGeometry x="190" y="90" width="100" height="30" as="geometry" />
        </mxCell>
        <mxCell id="76C8o1AgfkSou40HYmaA-56" value="Route Table" style="sketch=0;outlineConnect=0;fontColor=#232F3E;gradientColor=none;fillColor=#4D27AA;strokeColor=none;dashed=0;verticalLabelPosition=bottom;verticalAlign=top;align=center;html=1;fontSize=12;fontStyle=0;aspect=fixed;pointerEvents=1;shape=mxgraph.aws4.route_table;shadow=0;" vertex="1" parent="1">
          <mxGeometry x="860" y="180" width="61.58" height="60" as="geometry" />
        </mxCell>
      </root>
    </mxGraphModel>
  </diagram>
</mxfile>
